<svg width="15" height="15" viewBox="-0.5 -0.5 15 15" fill="none" xmlns="http://www.w3.org/2000/svg">
<g clip-path="url(#clip0_1799_4879)">
<path d="M2.15385 0V10.2308C2.15385 10.5296 1.91423 10.7692 1.61538 10.7692C1.31654 10.7692 1.07692 10.5296 1.07692 10.2308V3.76923H1.61538V2.69231H0V10.2308C0 11.1165 0.729615 11.8462 1.61538 11.8462H7C6.89231 11.5231 6.83146 11.1462 6.83146 10.7692H3.13062C3.192 10.5991 3.23131 10.4208 3.23131 10.2308V1.07692H11.8467V7C12.2236 7.10769 12.6005 7.26923 12.9236 7.53846V0H2.15385ZM4.30769 2.15385V4.30769H10.7692V2.15385H4.30769ZM4.30769 5.38462V6.46154H7V5.38462H4.30769ZM8.07692 5.38462V6.46154H10.7692V5.38462H8.07692ZM4.30769 7V8.07692H7V7H4.30769ZM10.7692 7.53846C8.97939 7.53846 7.53846 8.97939 7.53846 10.7692C7.53846 12.5591 8.97939 14 10.7692 14V12.9231C9.54369 12.9231 8.61539 11.9948 8.61539 10.7692C8.61539 9.54369 9.54369 8.61539 10.7692 8.61539C11.9948 8.61539 12.9231 9.54369 12.9231 10.7692C12.9231 11.2366 12.7901 11.6685 12.5526 12.0147L11.8462 11.3077L11.5769 13.7308L14 13.4615L13.3269 12.7885C13.7744 12.2263 14 11.5107 14 10.7692C14 8.97939 12.5591 7.53846 10.7692 7.53846ZM4.30769 8.61539V9.69231H7V8.61539H4.30769Z" fill="white"/>
</g>
<defs>
<clipPath id="clip0_1799_4879">
<rect width="14" height="14" fill="white"/>
</clipPath>
</defs>
</svg>
